<svg id="Layer_1" height="512" viewBox="0 0 512 512" width="512" xmlns="http://www.w3.org/2000/svg" data-name="Layer 1"><path d="m496.54 196.83a60.292 60.292 0 1 1 -54.35-53.93l.26.26-32.81 32.82 8.44 45.44 45.43 8.43z" fill="#ccd3df"/><path d="m406.58 419.78a41.81 41.81 0 1 1 -18.06 34.4 41.531 41.531 0 0 1 18.06-34.4zm44.7 34.4-10.47-18.13h-20.94l-10.47 18.13 10.47 18.14h20.94z" fill="#6d7486"/><path d="m406.58 255.26v164.52a41.791 41.791 0 0 1 47.37-.1l.14-.2v-158.84a60.375 60.375 0 0 1 -47.51-5.38z" fill="#b0b5ca"/><path d="m349.87 373.27v122.73h-59.84v-198.68a78.125 78.125 0 0 1 59.84 75.95z" fill="#a0eaea"/><path d="m240.35 277.89-.58 1.08v47.71a57.26 57.26 0 1 1 -114.52 0v-47.57l-2.22 1.11-48.05 17.1v198.68h58.16v-88.07a116.943 116.943 0 0 0 108.71.2v87.87h48.18v-198.68z" fill="#fe8700"/><path d="m271.36 119.41h-177.7a11.605 11.605 0 0 0 0 23.21h177.7a11.605 11.605 0 0 0 0-23.21z" fill="#edb740"/><path d="m270.87 118.46v.95h-176.72v-.8c0-37.31 20.65-70 50.5-85.13v11.3a54.568 54.568 0 0 0 37.67 51.88l1.25.4a54.54 54.54 0 0 0 36.8-51.59v-12c29.85 15.1 50.5 47.68 50.5 84.99z" fill="#ffdb00"/><path d="m266.97 232.22a54.078 54.078 0 0 1 -16.56 50.8q-5.1-2.445-10.06-5.13c-.58-.31-1.16-.62-1.74-.94l-15.58-8.57v-6.78l-.09-.11a62.753 62.753 0 0 0 22-35.75l5.28-24.65h3.34a12.441 12.441 0 0 0 6.69-1.94z" fill="#6d7486"/><path d="m108.11 177.2a12.432 12.432 0 0 1 5.24-1.15h3.34a35.681 35.681 0 0 1 22.8-33.29v-.14h62.22c1.51.36 3.04.66 4.59.91a111.8 111.8 0 0 0 13.61 1.28 31.327 31.327 0 0 1 30.31 31.24h3.34a12.52 12.52 0 0 1 0 25.04h-3.34l-5.28 24.65a62.877 62.877 0 0 1 -101.01 35.72c-.34-.28-.68-.55-1.01-.84a62.7 62.7 0 0 1 -20.95-34.88l-5.28-24.65h-3.34a12.522 12.522 0 0 1 -5.24-23.89z" fill="#ffd8b7"/><path d="m258.37 142.64v34.37a12.4 12.4 0 0 0 -4.81-.96h-3.34a31.327 31.327 0 0 0 -30.31-31.24 111.8 111.8 0 0 1 -13.61-1.28c-1.55-.25-3.08-.55-4.59-.91h56.66z" fill="#6d7486"/><path d="m241.85 494.75v1.25h-108.71v-88.07a116.943 116.943 0 0 0 108.71.2z" fill="#ffdb00"/><path d="m240.35 277.89-.58 1.08v47.71a57.26 57.26 0 1 1 -114.52 0v-47.57l16.9-8.49v6.09a47.491 47.491 0 0 0 11.25 30.69 38.26 38.26 0 0 0 58.37 0 47.373 47.373 0 0 0 11.26-30.69v-8.33l15.58 8.57c.58.32 1.16.63 1.74.94z" fill="#a0eaea"/><path d="m222.94 261.49a62.86 62.86 0 0 1 -79.01-.03c-.34-.28-.68-.55-1.01-.84l-.77.98v15.11a47.491 47.491 0 0 0 11.25 30.69 38.26 38.26 0 0 0 58.37 0 47.373 47.373 0 0 0 11.26-30.69v-15.11z" fill="#efc597"/><path d="m220.37 33.47v12a54.54 54.54 0 0 1 -36.8 51.59l-1.25-.4a54.568 54.568 0 0 1 -37.67-51.88v-11.3a82.539 82.539 0 0 1 16.24-6.22l-1.17-11.26h45.58l-1.17 11.26a82.507 82.507 0 0 1 16.24 6.21z" fill="#edb740"/><path d="m125.25 279.11-2.22 1.11q-3.375 1.695-6.81 3.25a54.121 54.121 0 0 1 -17.05-51.25l6.81-33.53a12.469 12.469 0 0 0 7.37 2.4h3.34l5.28 24.65a62.7 62.7 0 0 0 20.95 34.88l-.77.98v9.02z" fill="#6d7486"/><path d="m139.49 142.62v.14a35.681 35.681 0 0 0 -22.8 33.29h-3.34a12.432 12.432 0 0 0 -5.24 1.15v-34.58z" fill="#6d7486"/><path d="m74.98 297.32v198.68h-59.83v-122.73a78.127 78.127 0 0 1 59.83-75.95z" fill="#a0eaea"/><path d="m124.15 118.61a97.72 97.72 0 0 1 21.83-61.893 54.53 54.53 0 0 1 -1.33-11.937v-11.3c-29.85 15.13-50.5 47.82-50.5 85.13v.8h30z" fill="#fffc8f"/><path d="m145.98 56.717a89.356 89.356 0 0 1 28.67-23.237 82.539 82.539 0 0 1 16.24-6.22l-1.17-11.26h-30l1.17 11.26a82.539 82.539 0 0 0 -16.24 6.22v11.3a54.53 54.53 0 0 0 1.33 11.937z" fill="#fc6"/><path d="m112.06 131.02a11.608 11.608 0 0 1 11.6-11.61h-30a11.605 11.605 0 0 0 0 23.21h30a11.6 11.6 0 0 1 -11.6-11.6z" fill="#fc6"/><path d="m173.93 261.46c-.34-.28-.68-.55-1.01-.84a62.7 62.7 0 0 1 -20.95-34.88l-.9-4.2a197.6 197.6 0 0 1 -4.381-41.374v-4.116a35.681 35.681 0 0 1 22.8-33.29v-.14h-30v.14a35.681 35.681 0 0 0 -22.8 33.29h-3.34a12.52 12.52 0 0 0 0 25.04h3.34l5.28 24.65a62.7 62.7 0 0 0 20.95 34.88c.33.29.67.56 1.01.84a62.787 62.787 0 0 0 54.522 12.156 62.889 62.889 0 0 1 -24.521-12.156z" fill="#efc597"/><path d="m74.98 311.887v-14.567a78.127 78.127 0 0 0 -59.83 75.95v122.73h30v-122.73a77.95 77.95 0 0 1 29.83-61.383z" fill="#74c4c2"/><g fill="#284268"><path d="m440.806 430.05h-20.939a6 6 0 0 0 -5.2 3l-10.467 18.134a6 6 0 0 0 0 6l10.47 18.133a6 6 0 0 0 5.2 3h20.939a6 6 0 0 0 5.2-3l10.47-18.133a6 6 0 0 0 0-6l-10.479-18.134a6 6 0 0 0 -5.194-3zm-3.464 36.267h-14.011l-7-12.133 7-12.134h14.011l7 12.134z"/><path d="m291.434 291.482a187.96 187.96 0 0 1 -30.909-10.441 59.659 59.659 0 0 0 12.327-50.014l-6.009-29.584a18.45 18.45 0 0 0 -2.473-27.875v-24.944h6.987a17.6 17.6 0 0 0 5.427-34.35 104.242 104.242 0 0 0 -20.084-57.574 94.81 94.81 0 0 0 -46.085-33.763l.656-6.318a6 6 0 0 0 -5.971-6.619h-45.579a6 6 0 0 0 -5.968 6.619l.655 6.319a94.761 94.761 0 0 0 -46.089 33.846 104.545 104.545 0 0 0 -20.073 57.486 17.6 17.6 0 0 0 5.416 34.354h8.453v25.246a18.454 18.454 0 0 0 -2.677 26.89l-6.148 30.267a60.466 60.466 0 0 0 12.6 50.309 230.793 230.793 0 0 1 -32.3 10.146 83.807 83.807 0 0 0 -64.439 81.788v122.73a6 6 0 0 0 6 6h334.718a6 6 0 0 0 6-6v-122.73a83.807 83.807 0 0 0 -64.435-81.788zm-222.449 198.518h-47.834v-116.73a71.822 71.822 0 0 1 47.834-67.91zm180.228-214.261-20.188-10.9v-.625a69.118 69.118 0 0 0 21.775-37.214l4.282-19.972c.214-.018.42-.058.632-.083l5.376 26.469a47.784 47.784 0 0 1 -11.877 42.325zm-132.525-93.685a6 6 0 0 0 6-6 29.805 29.805 0 0 1 18.344-27.43l64.33.829a119.61 119.61 0 0 0 14.338 1.357 25.255 25.255 0 0 1 24.526 25.244 6 6 0 0 0 6 6h3.339a6.519 6.519 0 0 1 0 13.038h-3.339a6 6 0 0 0 -5.867 4.742l-5.285 24.653a56.879 56.879 0 0 1 -111.23 0l-5.284-24.653a6 6 0 0 0 -5.867-4.742h-3.343a6.519 6.519 0 1 1 0-13.038zm-2.573-22.479v-10.951h6.924a42.216 42.216 0 0 0 -6.924 10.951zm130.068-10.951h8.187v10.876a37.121 37.121 0 0 0 -8.187-10.876zm-27.158 124.076v4.017a41.515 41.515 0 0 1 -9.832 26.809 32.254 32.254 0 0 1 -49.213 0 41.521 41.521 0 0 1 -9.832-26.809v-4.606c.035-.124.053-.253.08-.379a68.777 68.777 0 0 0 68.8.968zm-68.2 38.585a44.255 44.255 0 0 0 67.522 0 53.519 53.519 0 0 0 12.637-32.778l4.785 2.629v45.55a51.26 51.26 0 0 1 -102.52 0v-43.881l5.031-2.526a53.526 53.526 0 0 0 12.546 31.004zm1.82-274a76.223 76.223 0 0 1 11.785-4.221 6 6 0 0 0 4.426-6.417l-.48-4.647h32.268l-.482 4.646a6 6 0 0 0 4.427 6.417 76.583 76.583 0 0 1 11.785 4.216v8.194a48.57 48.57 0 0 1 -30.915 45.237 48.435 48.435 0 0 1 -32.813-45.932zm-32.675 26.63a85.277 85.277 0 0 1 20.676-19.907v.77a60.408 60.408 0 0 0 41.821 57.584l1.243.405a6 6 0 0 0 3.808-.033 60.57 60.57 0 0 0 40.856-57.261v-1.487a85.194 85.194 0 0 1 20.68 19.857 92.069 92.069 0 0 1 17.659 49.566h-164.4a92.4 92.4 0 0 1 17.657-49.494zm-24.308 72.709a5.608 5.608 0 0 1 0-11.215h177.7a5.608 5.608 0 1 1 0 11.215zm11.388 96.792 5.395-26.566c.456.072.913.142 1.379.18l4.282 19.97a69.127 69.127 0 0 0 20.042 35.61v4.306l-18.71 9.357a48.41 48.41 0 0 1 -12.388-42.857zm130.8 256.584h-96.706v-72.557a122.942 122.942 0 0 0 96.706.164zm48.185 0h-36.185v-81.866a6 6 0 0 0 -8.779-5.318 110.945 110.945 0 0 1 -103.13-.191 6 6 0 0 0 -8.8 5.308v82.067h-46.156v-188a228.9 228.9 0 0 0 37.71-13.067c.186-.084.369-.173.555-.258v38.01a63.26 63.26 0 0 0 126.52 0v-39.25a210.25 210.25 0 0 0 38.265 14.543zm59.834 0h-47.834v-184.64a71.82 71.82 0 0 1 47.834 67.91z"/><path d="m182.51 344.135a7.909 7.909 0 1 0 -7.908-7.908 7.918 7.918 0 0 0 7.908 7.908z"/><path d="m182.51 368.948a7.909 7.909 0 1 0 -7.908-7.909 7.918 7.918 0 0 0 7.908 7.909z"/><path d="m153.144 438.184a6 6 0 0 0 -6 6v28.567a6 6 0 0 0 12 0v-28.567a6 6 0 0 0 -6-6z"/><path d="m501.116 192.526-.244-.261a6 6 0 0 0 -9.811 1.553l-29.561 29.56-38.278-7.109-7.11-38.279 30.588-30.583a6 6 0 0 0 0-8.489l-.26-.26a6 6 0 0 0 -3.681-1.728 66.288 66.288 0 0 0 -42.172 121.685v158.185a47.816 47.816 0 1 0 59.517 0v-151.913a66.214 66.214 0 0 0 42.548-67.2 6 6 0 0 0 -1.536-5.161zm-34.964 261.658a35.816 35.816 0 1 1 -35.816-35.816 35.857 35.857 0 0 1 35.816 35.816zm-53.574-44.384v-145.076a66.2 66.2 0 0 0 35.517 3.454v141.622a47.648 47.648 0 0 0 -35.517 0zm62.369-168.472a54.3 54.3 0 1 1 -47.16-91.984l-22.387 22.394a6 6 0 0 0 -1.658 5.339l8.439 45.434a6 6 0 0 0 4.8 4.8l45.435 8.439a6 6 0 0 0 5.338-1.656l22.4-22.4a54.053 54.053 0 0 1 -15.207 29.635z"/><path d="m172.8 69.947h21.526a6 6 0 0 0 0-12h-21.526a6 6 0 0 0 0 12z"/><path d="m172.8 50.1h21.526a6 6 0 0 0 0-12h-21.526a6 6 0 0 0 0 12z"/></g></svg>