<svg id="Capa_1" enable-background="new 0 0 512 512" height="512" viewBox="0 0 512 512" width="512" xmlns="http://www.w3.org/2000/svg"><g><g><path d="m427.728 504.5h-242.439c-11.158 0-20.203-9.045-20.203-20.203v-456.594c0-11.158 9.045-20.203 20.203-20.203h242.439c11.158 0 20.203 9.045 20.203 20.203v456.594c0 11.158-9.045 20.203-20.203 20.203z" fill="#90d8f9"/></g><g><path d="m427.728 7.5h-31.026c11.158 0 20.203 9.045 20.203 20.203v456.594c0 11.158-9.045 20.203-20.203 20.203h31.026c11.158 0 20.203-9.045 20.203-20.203v-456.594c0-11.158-9.045-20.203-20.203-20.203z" fill="#6bbef6"/></g><g><path d="m447.931 484.297v-20.203h-282.846v20.203c0 11.158 9.045 20.203 20.203 20.203h242.439c11.159 0 20.204-9.045 20.204-20.203z" fill="#30579d"/></g><g><path d="m416.904 464.094v20.203c0 11.158-9.045 20.203-20.203 20.203h31.026c11.158 0 20.203-9.045 20.203-20.203v-20.203z" fill="#26457d"/></g><g><path d="m370.944 32.603 6.276-25.103h-141.423l6.276 25.103c2.248 8.994 10.329 15.303 19.6 15.303h89.671c9.27.001 17.351-6.309 19.6-15.303z" fill="#30579d"/></g><g><g><circle cx="124.679" cy="251.959" fill="#4073c8" r="60.61"/></g><g><circle cx="124.679" cy="251.959" fill="#26457d" r="20.203"/></g></g><g><path d="m346.915 186.299h-24.244v-24.244h-32.325v24.244h-24.244v32.325h24.244v24.244h32.325v-24.244h24.244z" fill="#e4f6ff"/></g><g><path d="m427.73 0h-242.44c-15.274 0-27.7 12.426-27.7 27.7v65.16c0 4.143 3.358 7.5 7.5 7.5s7.5-3.357 7.5-7.5v-65.16c0-7.003 5.697-12.7 12.7-12.7h44.651l4.855 19.422c3.089 12.355 14.14 20.984 26.876 20.984h89.671c12.735 0 23.787-8.629 26.876-20.983l4.856-19.423h44.655c7.003 0 12.7 5.697 12.7 12.7v330.3c0 4.143 3.358 7.5 7.5 7.5s7.5-3.357 7.5-7.5v-330.3c0-15.274-12.426-27.7-27.7-27.7zm-64.062 30.784c-1.417 5.665-6.484 9.622-12.324 9.622h-89.671c-5.84 0-10.907-3.956-12.324-9.622l-3.946-15.784h122.211z"/><path d="m447.93 385.5c-4.142 0-7.5 3.357-7.5 7.5v63.594h-267.84v-83.502c.047-6.965 5.724-12.616 12.699-12.616 7.004 0 12.703 5.698 12.703 12.703v30.305c0 15.275 12.428 27.703 27.704 27.703h60.609c15.276 0 27.704-12.428 27.704-27.703v-110.689h4.622c37.556 0 68.11-30.554 68.11-68.11v-90.914c0-4.143-3.358-7.5-7.5-7.5h-15.734v-8.663c0-4.143-3.358-7.5-7.5-7.5s-7.5 3.357-7.5 7.5v32.325c0 4.143 3.358 7.5 7.5 7.5s7.5-3.357 7.5-7.5v-8.662h8.234v83.414c0 29.285-23.825 53.11-53.11 53.11h-24.244c-29.285 0-53.11-23.825-53.11-53.11v-83.414h8.234v8.662c0 4.143 3.358 7.5 7.5 7.5s7.5-3.357 7.5-7.5v-32.325c0-4.143-3.358-7.5-7.5-7.5s-7.5 3.357-7.5 7.5v8.663h-15.734c-4.142 0-7.5 3.357-7.5 7.5v90.914c0 37.557 30.554 68.11 68.11 68.11h4.622v110.688c0 7.005-5.699 12.703-12.704 12.703h-60.609c-7.005 0-12.704-5.698-12.704-12.703v-30.305c0-15.275-12.428-27.703-27.703-27.703-4.576 0-8.892 1.122-12.699 3.094v-48.253c12.464-12.35 20.2-29.465 20.2-48.357s-7.736-36.007-20.2-48.357v-75.742c0-4.143-3.358-7.5-7.5-7.5s-7.5 3.357-7.5 7.5v64.493c-9.762-5.411-20.98-8.504-32.91-8.504-11.484 0-22.831 2.913-32.814 8.424-3.626 2.002-4.943 6.564-2.941 10.191 2.001 3.625 6.562 4.941 10.19 2.941 7.77-4.289 16.61-6.557 25.565-6.557 29.285 0 53.11 23.825 53.11 53.11 0 26.739-19.866 48.915-45.611 52.571v-25.908c11.642-3.28 20.204-13.987 20.204-26.664 0-15.275-12.428-27.703-27.704-27.703-15.275 0-27.703 12.428-27.703 27.703 0 12.677 8.561 23.384 20.203 26.664v25.908c-25.744-3.657-45.609-25.833-45.609-52.571 0-8.689 2.147-17.312 6.209-24.933 1.948-3.655.564-8.197-3.091-10.146-3.654-1.949-8.197-.564-10.146 3.091-5.215 9.784-7.972 20.846-7.972 31.987 0 35.021 26.571 63.941 60.609 67.688v83.835c0 15.275 12.428 27.703 27.704 27.703 4.579 0 8.898-1.124 12.708-3.099v56.216c0 15.274 12.426 27.7 27.7 27.7h242.44c15.274 0 27.7-12.426 27.7-27.7v-91.3c-.001-4.143-3.359-7.5-7.501-7.5zm-335.954-133.541c0-7.005 5.699-12.703 12.703-12.703 7.005 0 12.704 5.698 12.704 12.703s-5.699 12.704-12.704 12.704-12.703-5.699-12.703-12.704zm45.609 151.524c0 7.005-5.699 12.703-12.703 12.703-7.005 0-12.704-5.698-12.704-12.703v-83.835c9.132-1.005 17.723-3.821 25.411-8.082zm270.145 93.517h-242.44c-7.003 0-12.7-5.697-12.7-12.7v-12.706h267.84v12.706c0 7.003-5.697 12.7-12.7 12.7z"/><path d="m322.671 154.555h-32.325c-4.142 0-7.5 3.357-7.5 7.5v16.744h-16.744c-4.142 0-7.5 3.357-7.5 7.5v32.325c0 4.143 3.358 7.5 7.5 7.5h16.744v16.744c0 4.143 3.358 7.5 7.5 7.5h32.325c4.142 0 7.5-3.357 7.5-7.5v-16.744h16.744c4.142 0 7.5-3.357 7.5-7.5v-32.325c0-4.143-3.358-7.5-7.5-7.5h-16.744v-16.744c0-4.143-3.358-7.5-7.5-7.5zm16.744 39.244v17.325h-16.744c-4.142 0-7.5 3.357-7.5 7.5v16.744h-17.325v-16.744c0-4.143-3.358-7.5-7.5-7.5h-16.744v-17.325h16.744c4.142 0 7.5-3.357 7.5-7.5v-16.744h17.325v16.744c0 4.143 3.358 7.5 7.5 7.5z"/></g></g></svg>