<svg id="Layer_1" enable-background="new 0 0 512 512" height="512" viewBox="0 0 512 512" width="512" xmlns="http://www.w3.org/2000/svg"><g><g><g><g id="XMLID_1218_"><g id="XMLID_1219_"><g id="XMLID_1220_"><g id="XMLID_1221_"><g id="XMLID_1222_"><g id="XMLID_1223_"><g id="XMLID_1224_"><g id="XMLID_1225_"><g id="XMLID_1287_"><g id="XMLID_1288_"><g id="XMLID_1289_"><g id="XMLID_1391_"><g id="XMLID_1392_"><g id="XMLID_1393_"><g id="XMLID_1394_"><circle cx="256" cy="256" fill="#fd9827" r="256"/></g></g></g></g></g></g></g></g></g></g></g></g></g></g></g></g></g><path d="m512 256c0-34.494-6.838-67.386-19.207-97.418l-79.145-79.145-307.93 360.493 52.86 52.86c30.034 12.371 62.927 19.21 97.422 19.21 141.385 0 256-114.615 256-256z" fill="#ea7b0c"/><g><path d="m389.356 445.25h-266.714c-16.354 0-29.611-13.257-29.611-29.611v-248.667h325.936v248.667c0 16.353-13.257 29.611-29.611 29.611z" fill="#eef9ff"/><path d="m418.969 166.975v248.66c0 16.36-13.26 29.61-29.61 29.61h-133.36v-278.27z" fill="#d2ebff"/><path d="m329.039 306.113c0 40.34-32.7 73.03-73.04 73.03-14.74 0-28.46-4.36-39.94-11.88-8.45-5.52-15.69-12.76-21.21-21.21-7.52-11.47-11.89-25.2-11.89-39.94 0-40.34 32.7-73.04 73.04-73.04 14.74 0 28.46 4.37 39.94 11.89 8.45 5.52 15.69 12.76 21.21 21.21 7.52 11.48 11.89 25.2 11.89 39.94z" fill="#6ae1db"/><path d="m329.039 306.115c0 40.34-32.7 73.03-73.04 73.03v-146.07c14.74 0 28.46 4.37 39.94 11.89 8.45 5.52 15.69 12.76 21.21 21.21 7.52 11.48 11.89 25.2 11.89 39.94z" fill="#2fc1b6"/><g><path d="m216.059 367.263 101.09-101.09c-5.52-8.45-12.76-15.69-21.21-21.21l-101.09 101.09z" fill="#eef9ff"/></g><g><g><path d="m317.149 266.175-12.74 12.74-48.41 48.41v-42.42l39.94-39.94c8.45 5.52 15.69 12.76 21.21 21.21z" fill="#d2ebff"/></g></g><path d="m418.967 172.305h-325.936v-75.944c0-16.354 13.257-29.611 29.611-29.611h266.714c16.354 0 29.611 13.257 29.611 29.611z" fill="#776d6b"/><path d="m418.969 96.365v75.94h-162.97v-105.55h133.36c16.35 0 29.61 13.25 29.61 29.61z" fill="#605553"/><g><path d="m255.999 396.648c-49.922 0-90.537-40.615-90.537-90.537 0-49.923 40.615-90.538 90.537-90.538s90.537 40.615 90.537 90.538c0 49.922-40.615 90.537-90.537 90.537zm0-146.075c-30.623 0-55.537 24.914-55.537 55.538 0 30.623 24.914 55.537 55.537 55.537s55.537-24.914 55.537-55.537c0-30.624-24.914-55.538-55.537-55.538z" fill="#776d6b"/></g><g><g><path d="m255.999 215.575v35c9.88 0 19.16 2.59 27.2 7.13 8.86 5 16.22 12.35 21.21 21.21 4.54 8.04 7.13 17.33 7.13 27.2 0 30.62-24.92 55.53-55.54 55.53v35c49.92 0 90.54-40.61 90.54-90.53 0-49.93-40.62-90.54-90.54-90.54z" fill="#605553"/></g></g><ellipse cx="363.484" cy="119.528" fill="#2fc1b6" rx="17.223" ry="17.223" transform="matrix(.23 -.973 .973 .23 163.643 445.827)"/><ellipse cx="294.594" cy="119.528" fill="#fed940" rx="17.223" ry="17.223" transform="matrix(.23 -.973 .973 .23 110.58 378.779)"/></g></g></svg>