<?xml version="1.0" encoding="utf-8"?>
<!-- Generator: Adobe Illustrator 22.1.0, SVG Export Plug-In . SVG Version: 6.00 Build 0)  -->
<svg xmlns="http://www.w3.org/2000/svg" xmlns:xlink="http://www.w3.org/1999/xlink" version="1.1" id="Layer_1" x="0px" y="0px" viewBox="0 0 256 256" style="enable-background:new 0 0 256 256;" xml:space="preserve" width="512" height="512">
<style type="text/css">
	.st0{fill:#FFDF74;}
	.st1{fill:#FFD551;}
	.st2{fill:#F9BB32;}
	.st3{fill:#FFA730;}
	.st4{fill:#E58D23;}
	.st5{fill:#DB9C2E;}
	.st6{fill:#FFB74B;}
	.st7{fill:#BF6C0D;}
	.st8{fill:#A56021;}
	.st9{fill:#FFC34C;}
	.st10{fill:#CCC033;}
	.st11{fill:#FFF4C1;}
	.st12{fill:#FF624B;}
	.st13{fill:#FF4B34;}
	.st14{fill:#EACF32;}
	.st15{fill:#99AF17;}
	.st16{fill:#8C4C17;}
	.st17{fill:#FCE575;}
	.st18{fill:#FF9079;}
	.st19{fill:#FCF9DE;}
	.st20{fill:#FFD59A;}
	.st21{fill:#FFEACF;}
	.st22{fill:#FCDA4F;}
</style>
<g>
	<g>
		<g>
			<path class="st3" d="M223.447,107.126H101.222c-11.26,0-20.387,9.128-20.387,20.387v61.225c0,11.26,9.128,20.387,20.387,20.387     h81.136c3.557,13.58,14.581,36.734,48.342,35.274c2.648-0.115,3.593-3.561,1.368-5c-7.615-4.927-17.849-14.579-16.239-30.273     h7.617c11.26,0,20.388-9.128,20.388-20.387v-61.225C243.834,116.253,234.707,107.126,223.447,107.126z"/>
		</g>
	</g>
	<g>
		<g>
			<g>
				<path class="st4" d="M108.834,188.738v-61.225c0-11.26,9.128-20.387,20.387-20.387h-28c-11.26,0-20.387,9.128-20.387,20.387      v61.225c0,11.26,9.128,20.387,20.387,20.387h28C117.962,209.126,108.834,199.998,108.834,188.738z"/>
			</g>
		</g>
	</g>
	<g>
		<g>
			<path class="st6" d="M223.447,204.126c-1.657,0-3-1.343-3-3s1.343-3,3-3c5.176,0,9.388-4.211,9.388-9.388V169     c0-1.657,1.343-3,3-3s3,1.343,3,3v19.738C238.834,197.223,231.932,204.126,223.447,204.126z"/>
		</g>
	</g>
	<g>
		<g>
			<path class="st1" d="M154.778,11.535H32.553c-11.26,0-20.388,9.128-20.388,20.387v61.225c0,11.26,9.128,20.387,20.388,20.387     h7.617c1.61,15.694-8.624,25.346-16.239,30.273c-2.225,1.44-1.279,4.886,1.368,5c33.761,1.46,44.785-21.694,48.342-35.274h81.136     c11.26,0,20.387-9.128,20.387-20.387V31.922C175.166,20.663,166.038,11.535,154.778,11.535z"/>
		</g>
	</g>
	<g>
		<g>
			<path class="st0" d="M167.166,34.922c-1.657,0-3-1.343-3-3c0-5.176-4.211-9.387-9.387-9.387h-16.244c-1.657,0-3-1.343-3-3     s1.343-3,3-3h16.244c8.484,0,15.387,6.903,15.387,15.387C170.166,33.579,168.822,34.922,167.166,34.922z"/>
		</g>
	</g>
	<g>
		<g>
			<path class="st8" d="M158.466,90.375h-82c-2.209,0-4-1.791-4-4s1.791-4,4-4h82c2.209,0,4,1.791,4,4     S160.675,90.375,158.466,90.375z"/>
		</g>
	</g>
	<g>
		<g>
			<g>
				<path class="st8" d="M227.334,141.246h-130c-2.209,0-4-1.791-4-4s1.791-4,4-4h130c2.209,0,4,1.791,4,4      S229.543,141.246,227.334,141.246z"/>
			</g>
		</g>
	</g>
	<g>
		<g>
			<g>
				<path class="st8" d="M227.334,163.246h-130c-2.209,0-4-1.791-4-4s1.791-4,4-4h130c2.209,0,4,1.791,4,4      S229.543,163.246,227.334,163.246z"/>
			</g>
		</g>
	</g>
	<g>
		<g>
			<g>
				<path class="st8" d="M179.534,185.966h-82c-2.209,0-4-1.791-4-4s1.791-4,4-4h82c2.209,0,4,1.791,4,4      S181.743,185.966,179.534,185.966z"/>
			</g>
		</g>
	</g>
	<g>
		<g>
			<circle class="st9" cx="56.961" cy="25" r="9"/>
		</g>
	</g>
	<g>
		<g>
			<circle class="st4" cx="129.222" cy="198" r="9"/>
		</g>
	</g>
	<g>
		<g>
			<path class="st9" d="M68.17,113.535h-7.617c-11.26,0-20.388-9.128-20.388-20.387V31.922c0-11.26,9.128-20.387,20.388-20.387h-28     c-11.26,0-20.388,9.128-20.388,20.387v61.225c0,11.26,9.128,20.387,20.388,20.387h7.617c1.61,15.694-8.624,25.346-16.239,30.273     c-2.225,1.44-1.279,4.886,1.368,5c13.647,0.59,23.576-2.844,30.802-8.039C62.772,135.306,69.498,126.477,68.17,113.535z"/>
		</g>
	</g>
	<g>
		<g>
			<path class="st9" d="M68.17,113.535h-7.617c-11.26,0-20.388-9.128-20.388-20.387V31.922c0-11.26,9.128-20.387,20.388-20.387h-28     c-11.26,0-20.388,9.128-20.388,20.387v61.225c0,11.26,9.128,20.387,20.388,20.387h7.617c1.61,15.694-8.624,25.346-16.239,30.273     c-2.225,1.44-1.279,4.886,1.368,5c13.647,0.59,23.576-2.844,30.802-8.039C62.772,135.306,69.498,126.477,68.17,113.535z"/>
		</g>
	</g>
	<g>
		<g>
			<path class="st9" d="M68.17,113.535h-7.617c-11.26,0-20.388-9.128-20.388-20.387V31.922c0-11.26,9.128-20.387,20.388-20.387h-28     c-11.26,0-20.388,9.128-20.388,20.387v61.225c0,11.26,9.128,20.387,20.388,20.387h7.617c1.61,15.694-8.624,25.346-16.239,30.273     c-2.225,1.44-1.279,4.886,1.368,5c13.647,0.59,23.576-2.844,30.802-8.039C62.772,135.306,69.498,126.477,68.17,113.535z"/>
		</g>
	</g>
	<g>
		<g>
			<g>
				<path class="st8" d="M158.666,67.655h-130c-2.209,0-4-1.791-4-4s1.791-4,4-4h130c2.209,0,4,1.791,4,4      S160.875,67.655,158.666,67.655z"/>
			</g>
		</g>
	</g>
	<g>
		<g>
			<g>
				<path class="st8" d="M158.666,45.655h-130c-2.209,0-4-1.791-4-4s1.791-4,4-4h130c2.209,0,4,1.791,4,4      S160.875,45.655,158.666,45.655z"/>
			</g>
		</g>
	</g>
	<g>
		<g>
			<path class="st16" d="M28.666,59.655c-2.209,0-4,1.791-4,4s1.791,4,4,4h11.5v-8H28.666z"/>
		</g>
	</g>
	<g>
		<g>
			<path class="st16" d="M28.666,37.655c-2.209,0-4,1.791-4,4s1.791,4,4,4h11.5v-8H28.666z"/>
		</g>
	</g>
	<g>
		<g>
			<path class="st16" d="M97.534,177.966c-2.209,0-4,1.791-4,4s1.791,4,4,4h11.3v-8H97.534z"/>
		</g>
	</g>
	<g>
		<g>
			<path class="st16" d="M97.334,155.246c-2.209,0-4,1.791-4,4s1.791,4,4,4h11.5v-8H97.334z"/>
		</g>
	</g>
	<g>
		<g>
			<path class="st16" d="M97.334,133.246c-2.209,0-4,1.791-4,4s1.791,4,4,4h11.5v-8H97.334z"/>
		</g>
	</g>
</g>
</svg>
